<?xml version="1.0" standalone="no"?>
<!DOCTYPE svg PUBLIC "-//W3C//DTD SVG 20010904//EN"
 "http://www.w3.org/TR/2001/REC-SVG-20010904/DTD/svg10.dtd">
<svg version="1.0" xmlns="http://www.w3.org/2000/svg"
 width="5120.000000pt" height="5120.000000pt" viewBox="0 0 5120.000000 5120.000000"
 preserveAspectRatio="xMidYMid meet">
<metadata>
Created by potrace 1.14, written by Peter Selinger 2001-2017
</metadata>
<g transform="translate(0.000000,5120.000000) scale(0.100000,-0.100000)"
fill="#000000" stroke="none">
<path d="M21289 31235 c-2 -1 -46 -6 -97 -9 -52 -3 -103 -8 -115 -11 -12 -2
-47 -7 -77 -10 -51 -5 -73 -8 -140 -19 -14 -2 -59 -11 -100 -20 -41 -8 -86
-17 -100 -20 -293 -57 -771 -241 -1048 -403 -41 -24 -76 -43 -78 -43 -3 0 -17
-8 -32 -18 -15 -10 -86 -58 -157 -105 -109 -72 -216 -152 -340 -254 -74 -60
-248 -226 -335 -319 -324 -346 -584 -752 -763 -1190 -39 -96 -123 -333 -132
-374 -2 -8 -19 -77 -39 -152 -35 -139 -44 -179 -51 -233 -2 -16 -10 -70 -19
-120 -32 -192 -41 -317 -41 -575 0 -198 8 -389 19 -450 3 -14 7 -50 11 -80 5
-50 17 -133 28 -185 3 -11 7 -36 11 -55 11 -60 13 -73 36 -160 12 -47 23 -92
25 -100 25 -100 101 -331 129 -395 8 -16 30 -70 50 -118 49 -119 172 -360 246
-482 80 -130 297 -439 329 -465 3 -3 35 -39 70 -80 109 -127 327 -339 451
-440 30 -25 57 -47 60 -50 8 -9 191 -143 245 -180 192 -132 495 -293 720 -382
119 -48 337 -124 378 -132 6 -2 19 -6 27 -9 16 -6 220 -55 260 -62 14 -3 50
-9 80 -15 30 -6 64 -12 75 -14 11 -2 43 -7 70 -10 28 -4 66 -9 85 -12 19 -2
49 -6 65 -9 170 -24 670 -25 827 0 13 2 50 6 83 10 33 3 83 10 110 15 28 5 67
12 87 14 152 22 641 158 673 187 5 5 15 9 23 9 8 0 28 6 45 14 18 7 61 26 97
41 36 15 127 59 203 96 480 239 861 536 1241 969 12 14 46 57 76 95 30 39 57
72 60 75 4 3 43 58 88 123 216 311 394 667 505 1012 37 114 83 280 91 327 3
15 7 31 9 36 3 4 8 26 11 48 4 22 9 51 12 64 6 26 6 27 18 105 4 28 10 61 12
75 2 14 7 48 10 75 3 28 7 60 9 73 24 151 24 691 0 822 -1 8 -6 40 -9 70 -6
49 -11 83 -21 155 -4 23 -11 60 -24 130 -116 582 -385 1164 -760 1640 -30 39
-57 72 -60 75 -4 3 -31 34 -61 70 -178 212 -464 469 -720 646 -357 247 -670
396 -1145 544 -39 12 -233 61 -265 66 -14 3 -59 11 -100 19 -41 8 -93 17 -115
20 -22 3 -53 7 -70 10 -16 3 -57 7 -90 10 -33 4 -71 9 -85 11 -28 6 -566 15
-571 9z"/>
<path d="M29340 31225 c-164 -17 -224 -24 -285 -36 -27 -5 -66 -12 -85 -15
-19 -3 -55 -10 -80 -16 -25 -5 -56 -12 -70 -14 -52 -11 -210 -54 -320 -90
-853 -272 -1588 -836 -2087 -1600 -40 -62 -73 -116 -73 -119 0 -3 -16 -30 -35
-60 -32 -50 -151 -288 -205 -410 -96 -216 -217 -630 -254 -875 -28 -189 -31
-207 -43 -370 -12 -169 -4 -664 12 -689 2 -4 6 -40 10 -81 4 -41 8 -77 10 -80
2 -3 6 -26 9 -50 4 -25 11 -65 16 -90 5 -25 12 -56 14 -70 2 -14 12 -56 21
-95 9 -38 19 -80 21 -93 8 -42 74 -257 84 -274 6 -10 10 -23 10 -29 0 -33 132
-341 218 -509 87 -167 268 -456 354 -563 166 -205 253 -304 378 -427 498 -488
1091 -822 1780 -1001 50 -13 267 -57 315 -64 23 -3 50 -7 61 -9 11 -2 47 -7
79 -11 33 -4 74 -9 90 -11 189 -23 699 -23 820 1 11 2 43 7 70 10 159 19 295
44 440 81 33 9 67 18 75 19 277 64 701 244 1007 428 89 54 278 181 318 214 6
4 30 24 55 43 176 135 421 368 569 540 107 124 257 327 344 467 42 67 77 125
77 128 0 4 8 19 19 33 21 30 112 209 161 317 61 132 169 430 196 538 2 9 6 25
9 35 17 59 67 291 79 367 21 131 25 156 42 315 9 80 11 533 3 630 -18 212 -61
487 -100 635 -6 22 -13 48 -15 59 -7 37 -109 355 -129 401 -7 17 -23 55 -35
85 -435 1075 -1360 1916 -2480 2254 -132 40 -322 87 -410 100 -19 3 -44 7 -55
10 -11 2 -40 7 -65 10 -25 3 -54 8 -66 10 -12 2 -57 7 -100 11 -43 4 -83 10
-88 13 -19 11 -565 9 -686 -3z"/>
<path d="M17317 23744 c-1 -1 -49 -5 -107 -8 -164 -11 -301 -29 -525 -71 -159
-29 -458 -121 -670 -205 -305 -121 -757 -386 -973 -570 -7 -7 -41 -35 -75 -63
-115 -95 -258 -234 -377 -368 -124 -139 -129 -145 -227 -275 -332 -443 -574
-974 -688 -1514 -9 -41 -18 -82 -20 -91 -4 -19 -13 -74 -20 -126 -3 -21 -8
-51 -11 -67 -4 -15 -7 -45 -9 -65 -2 -20 -6 -65 -10 -101 -4 -36 -9 -85 -11
-110 -4 -62 -5 -454 0 -515 5 -63 17 -181 22 -220 2 -16 6 -49 9 -71 3 -23 8
-53 10 -65 3 -13 12 -64 21 -114 39 -223 147 -582 241 -795 81 -184 148 -315
246 -480 61 -103 164 -258 189 -284 10 -11 18 -23 18 -27 0 -4 6 -14 13 -21 7
-7 28 -33 47 -58 120 -158 347 -398 500 -530 41 -36 77 -67 80 -70 3 -3 43
-35 90 -72 359 -276 729 -476 1148 -618 179 -60 223 -73 412 -115 158 -36 263
-54 410 -70 25 -3 65 -8 90 -11 79 -9 542 -11 635 -3 50 5 113 11 140 13 89 9
327 49 425 72 163 38 370 101 525 159 162 60 451 198 562 268 24 15 45 27 49
27 8 0 311 203 349 234 17 14 59 48 95 76 362 285 724 713 952 1125 290 522
448 1059 494 1670 7 99 14 110 15 24 0 -35 2 -75 4 -89 2 -14 6 -56 10 -95 8
-91 20 -182 30 -235 2 -9 6 -33 9 -51 39 -243 142 -587 254 -849 132 -311 375
-710 566 -931 17 -19 51 -60 76 -90 49 -59 275 -288 355 -360 318 -285 740
-544 1150 -706 175 -69 488 -164 615 -187 14 -2 36 -7 50 -10 34 -8 77 -15
125 -22 22 -3 63 -9 90 -14 28 -5 77 -12 110 -15 33 -4 80 -8 105 -11 85 -9
525 -11 625 -3 123 10 226 22 300 34 11 1 40 6 65 9 25 4 52 8 60 11 8 2 31 7
50 10 29 5 91 19 180 40 506 122 1049 390 1471 727 224 178 410 360 573 558
43 52 87 105 97 118 45 53 196 276 257 377 84 141 180 331 238 470 25 61 52
124 59 140 63 146 172 550 200 745 4 24 8 47 10 50 1 3 6 36 10 73 3 37 8 78
11 90 5 26 17 177 18 229 0 39 9 43 12 5 11 -181 22 -288 43 -427 16 -100 49
-255 77 -360 15 -52 28 -102 29 -110 5 -22 93 -282 104 -305 5 -11 26 -60 46
-110 55 -134 141 -307 207 -418 32 -55 58 -103 58 -108 0 -5 5 -9 10 -9 6 0
10 -4 10 -9 0 -5 16 -33 35 -62 20 -30 41 -62 48 -73 185 -281 506 -628 793
-856 101 -80 155 -120 163 -120 5 0 11 -4 13 -8 2 -5 44 -36 93 -69 351 -234
782 -427 1177 -527 137 -35 374 -81 468 -91 19 -3 53 -7 75 -9 124 -16 213
-20 420 -21 204 0 380 7 455 19 14 3 48 7 75 10 143 17 233 35 467 91 99 23
368 110 433 139 17 8 68 30 115 49 334 137 728 383 1026 641 104 90 330 320
415 421 390 466 652 970 799 1540 22 83 42 164 45 180 3 17 7 44 10 60 3 17
10 53 15 80 11 59 19 112 26 180 4 28 8 61 9 75 25 187 25 594 0 815 -8 76
-26 211 -30 225 -2 8 -6 31 -9 50 -58 367 -240 872 -441 1223 -109 189 -272
429 -371 546 -289 340 -531 561 -854 778 -255 171 -539 317 -805 413 -49 18
-99 36 -110 41 -32 12 -150 49 -173 54 -12 2 -25 6 -30 8 -8 5 -301 74 -347
81 -77 13 -164 26 -210 31 -27 3 -63 8 -80 10 -196 25 -578 25 -825 0 -620
-63 -1279 -307 -1790 -663 -71 -50 -241 -177 -280 -211 -14 -12 -50 -43 -80
-69 -65 -55 -295 -284 -363 -360 -80 -90 -233 -291 -311 -407 -177 -266 -303
-513 -409 -800 -113 -306 -179 -573 -216 -880 -17 -137 -20 -170 -22 -239 -2
-66 -15 -95 -16 -33 0 43 -13 217 -18 242 -2 11 -7 43 -10 70 -58 484 -252
1034 -523 1485 -383 636 -959 1166 -1618 1487 -65 32 -144 69 -174 81 -30 13
-64 28 -75 33 -27 12 -206 76 -280 100 -130 43 -375 104 -490 123 -64 11 -162
25 -214 31 -30 4 -63 8 -74 11 -122 23 -661 23 -831 -1 -17 -2 -83 -12 -146
-20 -63 -9 -167 -28 -230 -41 -63 -14 -125 -27 -137 -30 -12 -2 -77 -20 -145
-40 -384 -111 -742 -278 -1073 -498 -153 -102 -281 -200 -454 -351 -57 -49
-262 -257 -313 -316 -26 -29 -58 -67 -73 -84 -48 -55 -225 -294 -225 -303 0
-5 -7 -15 -15 -22 -49 -41 -294 -495 -365 -675 -17 -44 -34 -89 -39 -100 -26
-61 -36 -90 -66 -186 -36 -114 -84 -285 -91 -326 -3 -14 -11 -53 -19 -87 -8
-33 -16 -74 -19 -91 -10 -62 -25 -162 -31 -214 -4 -30 -8 -61 -10 -70 -2 -9
-6 -72 -10 -139 -4 -68 -9 -121 -10 -120 -2 2 -6 41 -9 88 -4 47 -9 104 -11
128 -3 23 -7 63 -10 90 -7 55 -32 226 -40 262 -2 14 -7 36 -10 50 -3 14 -7 34
-9 45 -33 162 -108 408 -183 600 -236 600 -624 1143 -1109 1550 -102 86 -107
90 -208 164 -222 164 -523 337 -736 426 -36 15 -78 33 -95 40 -16 7 -57 23
-90 35 -33 12 -71 26 -85 32 -47 19 -242 79 -340 104 -58 15 -354 74 -395 79
-27 3 -61 8 -75 10 -14 2 -47 6 -75 9 -27 3 -79 8 -115 12 -60 6 -457 13 -463
8z m11850 -4029 c0 -8 -4 -12 -9 -9 -5 3 -6 10 -3 15 9 13 12 11 12 -6z"/>
</g>
</svg>
