<?xml version="1.0" encoding="UTF-8" standalone="no"?>
<!-- Generator: Gravit.io -->
<svg xmlns="http://www.w3.org/2000/svg" xmlns:xlink="http://www.w3.org/1999/xlink" style="isolation:isolate" viewBox="0 0 3840 2160" width="3840pt" height="2160pt"><defs><clipPath id="_clipPath_b5uAej08tj1HvVHYJSGNqUwNiCyyuSoJ"><rect width="3840" height="2160"/></clipPath></defs><g clip-path="url(#_clipPath_b5uAej08tj1HvVHYJSGNqUwNiCyyuSoJ)"><g style="isolation:isolate"/><g><linearGradient id="_lgradient_9" x1="0" y1="0.5" x2="1" y2="0.5" gradientTransform="matrix(-27.673,583.333,-583.333,-27.673,2532.003,671.17)" gradientUnits="userSpaceOnUse"><stop offset="3.3333333333333335%" stop-opacity="1" style="stop-color:rgb(74,128,255)"/><stop offset="97.91666666666666%" stop-opacity="1" style="stop-color:rgb(71,200,255)"/></linearGradient><path d=" M 2240.337 657.333 C 2401.312 664.97 2525.803 801.861 2518.167 962.837 C 2510.53 1123.812 2373.639 1248.303 2212.663 1240.667 C 2051.688 1233.03 1927.197 1096.139 1934.833 935.163 C 1942.47 774.188 2079.361 649.697 2240.337 657.333 Z " fill="url(#_lgradient_9)"/><linearGradient id="_lgradient_10" x1="0" y1="0.5" x2="1" y2="0.5" gradientTransform="matrix(34.381,-582.971,582.971,34.381,1586.324,1785.295)" gradientUnits="userSpaceOnUse"><stop offset="3.3333333333333335%" stop-opacity="1" style="stop-color:rgb(74,255,201)"/><stop offset="97.91666666666666%" stop-opacity="1" style="stop-color:rgb(71,255,120)"/></linearGradient><path d=" M 1877.81 1802.486 C 1716.934 1792.998 1594.027 1654.685 1603.514 1493.81 C 1613.002 1332.934 1751.315 1210.027 1912.19 1219.514 C 2073.066 1229.002 2195.973 1367.315 2186.486 1528.19 C 2176.998 1689.066 2038.685 1811.973 1877.81 1802.486 Z " fill="url(#_lgradient_10)"/><linearGradient id="_lgradient_11" x1="0" y1="0.5" x2="1" y2="0.5" gradientTransform="matrix(-36.223,582.858,-582.858,-36.223,2788.54,1237.682)" gradientUnits="userSpaceOnUse"><stop offset="3.3333333333333335%" stop-opacity="1" style="stop-color:rgb(228,255,74)"/><stop offset="98.33333333333333%" stop-opacity="1" style="stop-color:rgb(169,255,71)"/></linearGradient><path d=" M 2497.111 1219.571 C 2657.955 1229.567 2780.425 1368.267 2770.429 1529.111 C 2760.433 1689.955 2621.733 1812.425 2460.889 1802.429 C 2300.045 1792.433 2177.575 1653.733 2187.571 1492.889 C 2197.567 1332.045 2336.267 1209.575 2497.111 1219.571 Z " fill="url(#_lgradient_11)"/><linearGradient id="_lgradient_12" x1="0" y1="0.5" x2="1" y2="0.5" gradientTransform="matrix(34.381,-582.971,582.971,34.381,1304.824,1223.295)" gradientUnits="userSpaceOnUse"><stop offset="3.3333333333333335%" stop-opacity="1" style="stop-color:rgb(255,192,74)"/><stop offset="98.33333333333333%" stop-opacity="1" style="stop-color:rgb(255,99,71)"/></linearGradient><path d=" M 1596.31 1240.486 C 1435.434 1230.998 1312.527 1092.685 1322.014 931.81 C 1331.502 770.934 1469.815 648.027 1630.69 657.514 C 1791.566 667.002 1914.473 805.315 1904.986 966.19 C 1895.498 1127.066 1757.185 1249.973 1596.31 1240.486 Z " fill="url(#_lgradient_12)"/><linearGradient id="_lgradient_13" x1="0" y1="0.5" x2="1" y2="0.5" gradientTransform="matrix(-253.872,-525.866,525.866,-253.872,1175.003,1900.869)" gradientUnits="userSpaceOnUse"><stop offset="3.3333333333333335%" stop-opacity="1" style="stop-color:rgb(255,74,237)"/><stop offset="91.25%" stop-opacity="1" style="stop-color:rgb(255,97,82)"/><stop offset="92.5%" stop-opacity="1" style="stop-color:rgb(255,99,74)"/><stop offset="100%" stop-opacity="1" style="stop-color:rgb(255,71,184)"/></linearGradient><path d=" M 1437.936 1773.933 C 1292.819 1843.991 1118.125 1783.053 1048.067 1637.936 C 978.009 1492.819 1038.947 1318.125 1184.064 1248.067 C 1329.181 1178.009 1503.875 1238.947 1573.933 1384.064 C 1643.991 1529.181 1583.053 1703.875 1437.936 1773.933 Z " fill="url(#_lgradient_13)"/></g></g></svg>